<svg width="180" height="34" viewBox="0 0 180 34" fill="none" xmlns="http://www.w3.org/2000/svg">
<path d="M24.7794 5.98397C22.881 5.98397 21.4323 6.51969 20.2713 7.43154C19.0649 8.37901 17.9989 9.87161 17.2043 11.998C15.9925 15.2406 15.5399 19.6254 15.957 24.7544L22.144 17.9673L27 21.8534L15.928 34H11.072L0 21.8534L4.85555 17.9673L9.4563 23.0142C9.26603 18.1575 9.8018 13.7007 11.1771 10.0203C12.238 7.18148 13.852 4.66522 16.169 2.84547C18.5314 0.990097 21.4496 0 24.7794 0V5.98397Z" fill="#C8FF00"/>
<path d="M58.0356 15.5541C58.0356 12.6288 55.501 10.2742 52.368 10.2029H42.5817V20.9052H52.368C55.501 20.8339 58.0356 18.4437 58.0356 15.5541ZM69.8989 16.0178C69.8989 24.6867 62.5063 31.7503 53.2833 32H31V0H53.2833C62.5063 0.24972 69.8989 7.31327 69.8989 16.0178Z" fill="#C8FF00"/>
<path d="M96.3105 10.9521V10.7023C96.3105 9.66778 94.6559 8.84727 92.6494 8.84727H82.0182V12.8071H92.6494C94.6559 12.8071 96.3105 11.9866 96.3105 10.9521ZM103.069 19.4069L109.441 32H98.8099L93.4943 21.5474H82.0182V32H71.6686V0.820513H97.4017C102.189 0.820513 106.062 4.70903 106.062 9.56076V12.7715C106.062 15.4114 104.9 17.8016 103.069 19.4069Z" fill="#C8FF00"/>
<path d="M136.795 19.7993V13.0212C136.795 11.4158 135.528 10.0959 133.944 10.0959H122.855C121.271 10.0959 120.003 11.4158 120.003 13.0212V19.7993C120.003 21.4047 121.271 22.7246 122.855 22.7246H133.944C135.528 22.7246 136.795 21.4047 136.795 19.7993ZM136.232 0.784837C141.407 0.784837 145.596 5.06577 145.596 10.3099V22.5106C145.596 27.7547 141.407 32 136.232 32H120.567C115.392 32 111.203 27.7547 111.203 22.5106V10.3099C111.203 5.06577 115.392 0.784837 120.567 0.784837H136.232Z" fill="#C8FF00"/>
<path d="M170.46 12.5217V8.88294H157.506V12.5217H170.46ZM171.657 0.891861C176.269 0.891861 180 4.67336 180 9.38239V12.9498C180 17.6232 176.269 21.4404 171.657 21.4404H157.506V32H147.402V0.891861H151.345V0.856187H171.657V0.891861Z" fill="#C8FF00"/>
</svg>
