<svg width="96" height="96" viewBox="0 0 96 96" fill="none" xmlns="http://www.w3.org/2000/svg">
<mask id="mask0_276_87" style="mask-type:alpha" maskUnits="userSpaceOnUse" x="0" y="0" width="96" height="96">
<rect width="96" height="96" fill="#C8FF00"/>
</mask>
<g mask="url(#mask0_276_87)">
<rect width="96" height="96" fill="#C8FF00"/>
<path opacity="0.1" d="M-30.5093 38.7181C-23.4717 34.8971 -14.6689 37.5048 -10.8477 44.5423C-6.67035 52.2352 1.78849 57.879 14.2043 59.4934C20.0076 60.2479 26.4677 60.063 33.2585 58.8134L25.5313 53.8109C18.8088 49.4591 16.8876 40.4807 21.2394 33.7582C25.5912 27.0361 34.5687 25.1148 41.2911 29.4664L76.4946 52.2545C79.8535 54.4289 82.1649 57.8949 82.8811 61.8316C83.5972 65.7682 82.6544 69.8262 80.2765 73.0442L55.3536 106.771C50.5944 113.211 41.5153 114.574 35.0749 109.815C28.6346 105.055 27.2712 95.9765 32.0302 89.5361L33.0248 88.1889C25.316 89.1679 17.7255 89.1947 10.4656 88.2508C-8.80711 85.745 -26.6916 76.1367 -36.3334 58.3797C-40.1544 51.3422 -37.5467 42.5394 -30.5093 38.7181Z" fill="#1E201D"/>
</g>
</svg>
